<svg xmlns="http://www.w3.org/2000/svg" xmlns:xlink="http://www.w3.org/1999/xlink" width="1920" height="708" viewBox="0 0 1920 708">
  <defs>
    <linearGradient id="linear-gradient" x1="0.5" x2="0.5" y2="1" gradientUnits="objectBoundingBox">
      <stop offset="0"/>
      <stop offset="1" stop-color="#4f006b"/>
    </linearGradient>
    <linearGradient id="linear-gradient-2" x1="0.5" x2="0.5" y2="0.65" gradientUnits="objectBoundingBox">
      <stop offset="0" stop-color="#832d9c" stop-opacity="0.851"/>
      <stop offset="0.582" stop-color="#5b1c71" stop-opacity="0.69"/>
      <stop offset="1" stop-color="#2b0043"/>
    </linearGradient>
  </defs>
  <g id="BG" transform="translate(0 -32)">
    <g id="Rectangle_1" data-name="Rectangle 1" transform="translate(0 32)" stroke="#707070" stroke-width="1" fill="url(#linear-gradient)">
      <rect width="1920" height="612" stroke="none"/>
      <rect x="0.5" y="0.5" width="1919" height="611" fill="none"/>
    </g>
    <g id="Ellipse_1" data-name="Ellipse 1" transform="translate(1226 195)" stroke="#707070" stroke-width="1" fill="url(#linear-gradient-2)">
      <circle cx="178" cy="178" r="178" stroke="none"/>
      <circle cx="178" cy="178" r="177.5" fill="none"/>
    </g>
    <path id="Path_2" data-name="Path 2" d="M3679.927,636.591l-41.8-24.5-41.8,44.92-64.027-76.228-75.3,68.061-63.649-107.536-35.621,70.783-24.379-54.449-42.632-28.421-79.281,82.87-110.193-90.344-39.582,46.785-170.418-72.144-89.075,53.087L2700.2,486.587,2600.157,593.032l-125.393-96.646-106.235,84.4-67.921-39.475-59.213,27.224-57.472-27.224L2081.17,593.032l-88.82-24.5-97.528,68.061-59.213-43.559-69.663,43.559V738.682h1913.98Z" transform="translate(-1762.937 -94.955)" fill="#30003e" stroke="#707070" stroke-width="1" opacity="0.29"/>
    <g id="Group_1" data-name="Group 1" opacity="0.04">
      <rect id="Rectangle_2" data-name="Rectangle 2" width="1920" height="6" transform="translate(0 74)"/>
      <rect id="Rectangle_2-2" data-name="Rectangle 2" width="1920" height="6" transform="translate(0 89)"/>
      <rect id="Rectangle_2-3" data-name="Rectangle 2" width="1920" height="6" transform="translate(0 104)"/>
      <rect id="Rectangle_2-4" data-name="Rectangle 2" width="1920" height="6" transform="translate(0 119)"/>
      <rect id="Rectangle_2-5" data-name="Rectangle 2" width="1920" height="6" transform="translate(0 134)"/>
      <rect id="Rectangle_2-6" data-name="Rectangle 2" width="1920" height="6" transform="translate(0 149)"/>
      <rect id="Rectangle_2-7" data-name="Rectangle 2" width="1920" height="6" transform="translate(0 164)"/>
      <rect id="Rectangle_2-8" data-name="Rectangle 2" width="1920" height="6" transform="translate(0 179)"/>
      <rect id="Rectangle_2-9" data-name="Rectangle 2" width="1920" height="6" transform="translate(0 194)"/>
      <rect id="Rectangle_2-10" data-name="Rectangle 2" width="1920" height="6" transform="translate(0 209)"/>
      <rect id="Rectangle_2-11" data-name="Rectangle 2" width="1920" height="6" transform="translate(0 224)"/>
      <rect id="Rectangle_2-12" data-name="Rectangle 2" width="1920" height="6" transform="translate(0 239)"/>
      <rect id="Rectangle_2-13" data-name="Rectangle 2" width="1920" height="6" transform="translate(0 254)"/>
      <rect id="Rectangle_2-14" data-name="Rectangle 2" width="1920" height="6" transform="translate(0 269)"/>
      <rect id="Rectangle_2-15" data-name="Rectangle 2" width="1920" height="6" transform="translate(0 284)"/>
      <rect id="Rectangle_2-16" data-name="Rectangle 2" width="1920" height="6" transform="translate(0 299)"/>
      <rect id="Rectangle_2-17" data-name="Rectangle 2" width="1920" height="6" transform="translate(0 314)"/>
      <rect id="Rectangle_2-18" data-name="Rectangle 2" width="1920" height="6" transform="translate(0 329)"/>
      <rect id="Rectangle_2-19" data-name="Rectangle 2" width="1920" height="6" transform="translate(0 344)"/>
      <rect id="Rectangle_2-20" data-name="Rectangle 2" width="1920" height="6" transform="translate(0 359)"/>
      <rect id="Rectangle_2-21" data-name="Rectangle 2" width="1920" height="6" transform="translate(0 374)"/>
      <rect id="Rectangle_2-22" data-name="Rectangle 2" width="1920" height="6" transform="translate(0 389)"/>
      <rect id="Rectangle_2-23" data-name="Rectangle 2" width="1920" height="6" transform="translate(0 404)"/>
      <rect id="Rectangle_2-24" data-name="Rectangle 2" width="1920" height="6" transform="translate(0 419)"/>
      <rect id="Rectangle_2-25" data-name="Rectangle 2" width="1920" height="6" transform="translate(0 434)"/>
      <rect id="Rectangle_2-26" data-name="Rectangle 2" width="1920" height="6" transform="translate(0 449)"/>
      <rect id="Rectangle_2-27" data-name="Rectangle 2" width="1920" height="6" transform="translate(0 464)"/>
      <rect id="Rectangle_2-28" data-name="Rectangle 2" width="1920" height="6" transform="translate(0 479)"/>
      <rect id="Rectangle_2-29" data-name="Rectangle 2" width="1920" height="6" transform="translate(0 494)"/>
      <rect id="Rectangle_2-30" data-name="Rectangle 2" width="1920" height="6" transform="translate(0 509)"/>
      <rect id="Rectangle_2-31" data-name="Rectangle 2" width="1920" height="6" transform="translate(0 524)"/>
      <rect id="Rectangle_2-32" data-name="Rectangle 2" width="1920" height="6" transform="translate(0 539)"/>
      <rect id="Rectangle_2-33" data-name="Rectangle 2" width="1920" height="6" transform="translate(0 554)"/>
      <rect id="Rectangle_2-34" data-name="Rectangle 2" width="1920" height="6" transform="translate(0 569)"/>
      <rect id="Rectangle_2-35" data-name="Rectangle 2" width="1920" height="6" transform="translate(0 584)"/>
      <rect id="Rectangle_2-36" data-name="Rectangle 2" width="1920" height="6" transform="translate(0 599)"/>
      <rect id="Rectangle_2-37" data-name="Rectangle 2" width="1920" height="6" transform="translate(0 614)"/>
      <rect id="Rectangle_2-38" data-name="Rectangle 2" width="1920" height="6" transform="translate(0 629)"/>
      <rect id="Rectangle_2-39" data-name="Rectangle 2" width="1920" height="6" transform="translate(0 644)"/>
      <rect id="Rectangle_2-40" data-name="Rectangle 2" width="1920" height="6" transform="translate(0 659)"/>
      <rect id="Rectangle_2-41" data-name="Rectangle 2" width="1920" height="6" transform="translate(0 674)"/>
      <rect id="Rectangle_2-42" data-name="Rectangle 2" width="1920" height="6" transform="translate(0 689)"/>
      <rect id="Rectangle_2-43" data-name="Rectangle 2" width="1920" height="6" transform="translate(0 704)"/>
      <rect id="Rectangle_2-44" data-name="Rectangle 2" width="1920" height="6" transform="translate(0 719)"/>
      <rect id="Rectangle_2-45" data-name="Rectangle 2" width="1920" height="6" transform="translate(0 734)"/>
    </g>
    <path id="Path_1" data-name="Path 1" d="M1765.947,636.591l41.8-24.5,41.8,44.92,74.887-63.977,64.438,55.81,56.07-80.312,43.2,43.559,70.485-43.559,75.807,43.559,83.6-70.783L2384.2,568.53l129.682-140.364L2643.7,549.473l90.562-62.616,111.46,106.175,125.393-96.646,106.235,84.4,67.921-39.475,59.213,27.224,57.472-27.224L3364.7,593.032l88.82-24.5,97.528,68.061,59.213-43.559,69.663,43.559V738.682H1765.947Z" transform="translate(-1762.937 -94.955)" stroke="#707070" stroke-width="1"/>
  </g>
</svg>
